<?xml version="1.0" standalone="no"?><!DOCTYPE svg PUBLIC "-//W3C//DTD SVG 1.1//EN" "http://www.w3.org/Graphics/SVG/1.1/DTD/svg11.dtd"><svg t="1582970144127" class="icon" viewBox="0 0 1024 1024" version="1.1" xmlns="http://www.w3.org/2000/svg" p-id="1796" xmlns:xlink="http://www.w3.org/1999/xlink" width="200" height="200"><defs><style type="text/css"></style></defs><path d="M778.298554 577.497737c0-16.473183-5.486968-30.592762-17.256012-43.141566L424.540577 198.637036c-11.763928-11.768021-28.240181-21.963221-47.849798-30.592762-20.393469-8.625448-38.435381-12.548804-54.906517-12.548804l-196.096167 0c-16.47216 0-30.588669 6.275937-42.358737 18.040888-11.762905 11.768021-18.039865 25.885554-18.039865 42.357713l0 195.311291c0 16.471137 3.922333 35.296901 12.548804 54.906517 8.630564 20.394493 18.039865 36.08587 30.592762 47.849798l336.502987 336.502987c11.763928 11.768021 25.8876 17.254989 42.35669 17.254989 16.47216 0 30.590715-5.486968 43.142589-17.254989l230.608192-230.608192C772.02671 608.087429 778.298554 593.969896 778.298554 577.497737L778.298554 577.497737 778.298554 577.497737zM258.248204 349.238033c-11.763928 11.768021-25.882484 17.256012-42.357713 17.256012-16.47216 0-30.590715-5.489014-42.35362-17.256012-11.768021-11.763928-17.261129-25.88146-17.261129-42.358737 0-16.471137 5.493108-30.588669 17.261129-42.35362 11.762905-11.768021 25.88146-17.260106 42.35362-17.260106 16.47523 0 30.592762 5.491061 42.357713 17.260106 11.769045 11.764951 17.256012 25.88146 17.256012 42.35362C276.289092 323.356572 270.017248 337.474105 258.248204 349.238033L258.248204 349.238033 258.248204 349.238033zM941.453471 534.356171 604.950484 198.637036c-11.763928-11.768021-28.240181-21.963221-47.849798-30.592762-20.394493-8.625448-38.435381-12.548804-54.905494-12.548804L396.300396 155.49547c16.476253 0 35.300994 3.923356 54.910611 12.548804 20.392446 8.630564 36.07973 18.039865 47.844681 30.592762l336.502987 335.719134c11.768021 12.548804 17.260106 26.669406 17.260106 43.141566 0 16.47216-5.492084 30.589692-17.260106 42.358737L615.145683 841.052295c9.414417 9.41237 18.044982 16.474206 25.100678 21.180392 7.060813 4.701069 16.47216 6.271844 27.455305 6.271844 16.47216 0 30.589692-5.486968 43.142589-17.254989l230.608192-231.393068c11.768021-11.769045 17.254989-25.886577 17.254989-42.358737C958.70846 561.024553 953.221492 546.903951 941.453471 534.356171L941.453471 534.356171 941.453471 534.356171zM941.453471 534.356171" p-id="1797"></path></svg>